<svg xmlns="http://www.w3.org/2000/svg" width="48" height="48" viewBox="0 0 48 48">
    <path data-name="사각형 2021" style="fill:none" d="M0 0h48v48H0z"/>
    <g data-name="그룹 9209">
        <path data-name="패스 10964" d="M4844.2 1272.547a.889.889 0 0 0 .69-.335l14.12-8.115a.27.27 0 0 0 .136-.231.827.827 0 0 0 .061-.657l-7.024-20.277a.813.813 0 0 0-.406-.653l-.04-.024-21.189-12.234a.716.716 0 0 0-1.054.448l-.029.116-7.136 28.84a.752.752 0 0 0 .355.832l.034.02 21.05 12.153a.858.858 0 0 0 .432.117m0 .75a1.612 1.612 0 0 1-.807-.218l-21.05-12.153h-.008l-.029-.018a1.508 1.508 0 0 1-.7-1.659l.01-.042 7.156-28.919a1.466 1.466 0 0 1 2.154-.915l.107.062 21.083 12.172.011.007.035.021a1.562 1.562 0 0 1 .762 1.133l7 20.2a1.549 1.549 0 0 1 .083.541 1.5 1.5 0 0 1-.126.581 1.012 1.012 0 0 1-.49.662l-14.015 8.055a1.65 1.65 0 0 1-1.176.493z" style="fill:#e5e5e5" transform="translate(-4816.305 -1226.923)"/>
        <g data-name="그룹 9208">
            <path data-name="패스 10965" d="m4852.184 1242.967-7.236 29.246 13.895-8.023a.806.806 0 0 0 .359-.963z" style="fill:#e0e0e0" transform="translate(-4816.305 -1226.923)"/>
            <path data-name="패스 10966" d="m4848.566 1257.59 10.441 6.028a.276.276 0 0 1 0 .478l-14.195 8.208z" style="fill:#c4c4c4" transform="translate(-4816.305 -1226.923)"/>
            <path data-name="패스 10967" d="m4844.7 1272.317 14.15-8.17a.788.788 0 0 0 .351-.94l-7.144-20.623" style="fill:none" transform="translate(-4816.305 -1226.923)"/>
            <path data-name="패스 10968" d="m4830.544 1230.02 21.231 12.257a.819.819 0 0 1 .385.9l-7.1 28.7a.88.88 0 0 1-1.295.551l-21.083-12.172a.753.753 0 0 1-.355-.833l7.165-28.955a.715.715 0 0 1 1.052-.448z" style="fill:#f5f5f5" transform="translate(-4816.305 -1226.923)"/>
            <path data-name="패스 10969" d="m4831.067 1233.432 18.546 10.708-6.182 24.985-18.546-10.708z" style="fill:#fff" transform="translate(-4816.305 -1226.923)"/>
            <path data-name="패스 10970" d="m4832.364 1242.585 1.831 1.057-.61 2.467-1.831-1.057z" style="fill:#e0e0e0" transform="translate(-4816.305 -1226.923)"/>
            <path data-name="패스 10970 - 윤곽선" d="M4832.364 1242.335a.25.25 0 0 1 .125.033l1.831 1.057a.25.25 0 0 1 .118.277l-.61 2.467a.25.25 0 0 1-.368.156l-1.831-1.057a.25.25 0 0 1-.118-.277l.61-2.467a.251.251 0 0 1 .243-.19zm1.543 1.43-1.38-.8-.485 1.962 1.38.8z" style="fill:#e0e0e0" transform="translate(-4816.305 -1226.923)"/>
            <path data-name="패스 10971" d="m4837.234 1245.4 1.831 1.057-.61 2.467-1.831-1.057z" style="fill:#809efd" transform="translate(-4816.305 -1226.923)"/>
            <path data-name="패스 10971 - 윤곽선" d="M4837.234 1245.148a.25.25 0 0 1 .125.033l1.831 1.057a.25.25 0 0 1 .118.277l-.61 2.467a.25.25 0 0 1-.368.156l-1.831-1.057a.25.25 0 0 1-.118-.277l.61-2.467a.251.251 0 0 1 .243-.19zm1.543 1.43-1.38-.8-.485 1.962 1.38.8z" style="fill:#4a74fc" transform="translate(-4816.305 -1226.923)"/>
            <path data-name="패스 10972" d="m4842.271 1248.316 1.831 1.057-.61 2.467-1.831-1.057z" style="fill:#809efd" transform="translate(-4816.305 -1226.923)"/>
            <path data-name="패스 10972 - 윤곽선" d="M4842.271 1248.066a.25.25 0 0 1 .125.033l1.831 1.057a.25.25 0 0 1 .118.277l-.61 2.467a.25.25 0 0 1-.368.156l-1.831-1.057a.25.25 0 0 1-.118-.277l.61-2.467a.251.251 0 0 1 .243-.19zm1.543 1.43-1.38-.8-.485 1.962 1.38.8z" style="fill:#4a74fc" transform="translate(-4816.305 -1226.923)"/>
            <path data-name="패스 10973" d="m4834.594 1236.725.973.562-.324 1.311-.973-.562z" style="fill:#7f7f7f" transform="translate(-4816.305 -1226.923)"/>
            <path data-name="패스 10973 - 윤곽선" d="M4834.594 1236.475a.249.249 0 0 1 .125.034l.973.562a.249.249 0 0 1 .118.276l-.324 1.311a.25.25 0 0 1-.368.156l-.973-.562a.25.25 0 0 1-.118-.277l.325-1.311a.25.25 0 0 1 .243-.19zm.685.934-.522-.3-.2.806.522.3z" style="fill:#5e5e5e" transform="translate(-4816.305 -1226.923)"/>
            <path data-name="패스 10974" d="m4844.5 1242.457.973.562-.325 1.311-.973-.562z" style="fill:#7f7f7f" transform="translate(-4816.305 -1226.923)"/>
            <path data-name="패스 10974 - 윤곽선" d="M4844.5 1242.207a.25.25 0 0 1 .125.033l.973.562a.25.25 0 0 1 .118.277l-.325 1.311a.25.25 0 0 1-.368.156l-.973-.562a.249.249 0 0 1-.118-.276l.324-1.311a.25.25 0 0 1 .243-.19zm.685.934-.522-.3-.2.806.522.3z" style="fill:#5e5e5e" transform="translate(-4816.305 -1226.923)"/>
            <path data-name="패스 10975" d="m4830.87 1248.289 1.831 1.057-.61 2.467-1.831-1.057z" style="fill:#809efd" transform="translate(-4816.305 -1226.923)"/>
            <path data-name="패스 10975 - 윤곽선" d="M4830.87 1248.039a.25.25 0 0 1 .125.033l1.831 1.057a.25.25 0 0 1 .118.277l-.61 2.467a.25.25 0 0 1-.368.156l-1.831-1.057a.25.25 0 0 1-.118-.277l.61-2.467a.251.251 0 0 1 .243-.19zm1.543 1.43-1.38-.8-.485 1.962 1.38.8z" style="fill:#4a74fc" transform="translate(-4816.305 -1226.923)"/>
            <path data-name="패스 10976" d="m4835.74 1251.1 1.831 1.057-.61 2.467-1.831-1.057z" style="fill:#e0e0e0" transform="translate(-4816.305 -1226.923)"/>
            <path data-name="패스 10976 - 윤곽선" d="M4835.74 1250.853a.25.25 0 0 1 .125.033l1.831 1.057a.25.25 0 0 1 .118.277l-.61 2.467a.25.25 0 0 1-.368.156l-1.831-1.057a.25.25 0 0 1-.118-.277l.61-2.467a.251.251 0 0 1 .243-.19zm1.543 1.43-1.38-.8-.485 1.962 1.38.8z" style="fill:#e0e0e0" transform="translate(-4816.305 -1226.923)"/>
            <path data-name="패스 10977" d="m4840.777 1254.021 1.831 1.057-.61 2.467-1.831-1.057z" style="fill:#809efd" transform="translate(-4816.305 -1226.923)"/>
            <path data-name="패스 10977 - 윤곽선" d="M4840.777 1253.771a.25.25 0 0 1 .125.033l1.831 1.057a.25.25 0 0 1 .118.277l-.61 2.467a.25.25 0 0 1-.368.156l-1.831-1.057a.25.25 0 0 1-.118-.277l.61-2.467a.251.251 0 0 1 .243-.19zm1.543 1.43-1.38-.8-.485 1.962 1.38.8z" style="fill:#4a74fc" transform="translate(-4816.305 -1226.923)"/>
            <path data-name="패스 10978" d="m4829.421 1253.658 1.831 1.057-.61 2.467-1.831-1.057z" style="fill:#809efd" transform="translate(-4816.305 -1226.923)"/>
            <path data-name="패스 10978 - 윤곽선" d="M4829.421 1253.408a.25.25 0 0 1 .125.033l1.831 1.057a.25.25 0 0 1 .118.277l-.61 2.467a.25.25 0 0 1-.368.156l-1.831-1.057a.25.25 0 0 1-.118-.277l.61-2.467a.251.251 0 0 1 .243-.19zm1.543 1.43-1.38-.8-.484 1.962 1.38.8z" style="fill:#4a74fc" transform="translate(-4816.305 -1226.923)"/>
            <path data-name="패스 10979" d="m4834.292 1256.472 1.831 1.057-.61 2.467-1.831-1.057z" style="fill:#e0e0e0" transform="translate(-4816.305 -1226.923)"/>
            <path data-name="패스 10979 - 윤곽선" d="M4834.292 1256.222a.25.25 0 0 1 .125.033l1.831 1.057a.25.25 0 0 1 .118.277l-.61 2.467a.25.25 0 0 1-.368.156l-1.831-1.057a.25.25 0 0 1-.118-.277l.61-2.467a.251.251 0 0 1 .243-.19zm1.543 1.43-1.38-.8-.485 1.962 1.38.8z" style="fill:#e0e0e0" transform="translate(-4816.305 -1226.923)"/>
            <path data-name="패스 10980" d="m4839.329 1259.39 1.831 1.057-.61 2.467-1.831-1.057z" style="fill:#e0e0e0" transform="translate(-4816.305 -1226.923)"/>
            <path data-name="패스 10980 - 윤곽선" d="M4839.329 1259.14a.25.25 0 0 1 .125.033l1.831 1.057a.25.25 0 0 1 .118.277l-.61 2.467a.25.25 0 0 1-.368.156l-1.831-1.057a.25.25 0 0 1-.118-.277l.61-2.467a.251.251 0 0 1 .243-.19zm1.543 1.43-1.38-.8-.485 1.962 1.38.8z" style="fill:#e0e0e0" transform="translate(-4816.305 -1226.923)"/>
            <path data-name="패스 10981" d="m4843.765 1272.429-21.05-12.153a.807.807 0 0 1-.379-.892l7.126-28.8a.807.807 0 0 1 1.186-.505l21.086 12.175a.876.876 0 0 1 .414.973l-7.089 28.651a.88.88 0 0 1-1.294.551z" style="fill:none" transform="translate(-4816.305 -1226.923)"/>
            <path data-name="패스 10982" d="M4835.412 1237.888a.25.25 0 0 1-.125-.033 1.831 1.831 0 0 1-.814-1.634 4.768 4.768 0 0 1 2.276-3.941 1.827 1.827 0 0 1 1.821-.112 2.3 2.3 0 0 1 .688 2.663.25.25 0 0 1-.484-.125c.252-.975.075-1.8-.453-2.1a1.355 1.355 0 0 0-1.331.118 4.271 4.271 0 0 0-2.016 3.49 1.359 1.359 0 0 0 .564 1.213.25.25 0 0 1-.125.467z" style="fill:#5e5e5e" transform="translate(-4816.305 -1226.923)"/>
            <path data-name="패스 10983" d="M4845.217 1243.44a.249.249 0 0 1-.125-.034c-1.02-.589-1.1-2.3-.176-3.893a4.423 4.423 0 0 1 1.638-1.681 1.829 1.829 0 0 1 1.821-.112 2.3 2.3 0 0 1 .686 2.663.25.25 0 0 1-.484-.125c.252-.975.075-1.8-.452-2.1a1.357 1.357 0 0 0-1.332.118 3.92 3.92 0 0 0-1.445 1.492c-.754 1.307-.757 2.777-.006 3.211a.25.25 0 0 1-.125.466z" style="fill:#5e5e5e" transform="translate(-4816.305 -1226.923)"/>
        </g>
    </g>
</svg>
