<svg xmlns="http://www.w3.org/2000/svg" width="48" height="48" viewBox="0 0 48 48">
    <defs>
        <clipPath id="9tvbyj42xa">
            <path data-name="패스 11082" d="M4951.111 1251.907v10.853a2.008 2.008 0 0 1-1.017 1.747l-15.986 9.085a2.012 2.012 0 0 1-2-.007l-14.885-8.6a2.008 2.008 0 0 1-1-1.74v-14.468l7.83-4.518z" style="fill:none"/>
        </clipPath>
        <clipPath id="txewm5iyab">
            <path data-name="패스 11085" d="m4924.573 1241.478-10.637 6.144a.344.344 0 0 0 0 .6l1.628.94.655-.379 7.83-4.52 8.373 14.5a.842.842 0 0 0 .305.3l2.592 1.5a.816.816 0 0 0 .819 0l18.164-10.5a.84.84 0 0 0 .307-1.146l-10.315-17.864a.839.839 0 0 0-1.147-.307z" style="fill:none"/>
        </clipPath>
    </defs>
    <path data-name="사각형 2022" style="fill:none" d="M0 0h48v48H0z"/>
    <g data-name="그룹 9270">
        <g data-name="그룹 9269">
            <g data-name="그룹 9264">
                <g data-name="그룹 9263" style="clip-path:url(#9tvbyj42xa)" transform="translate(-4909.765 -1228.635)">
                    <g data-name="그룹 9262">
                        <path data-name="패스 11076" d="m4924.575 1241.481 8.532 16.069v16.615l-16.887-9.759v-17.02z" style="fill:#fbfbfb"/>
                        <path data-name="패스 11077" d="M4933.106 1257.123v17.04l18-10.232v-17.088z" style="fill:#c4c4c4"/>
                        <path data-name="패스 11078" d="m4945.121 1258.821 2.026-1.152v4.513l-2.026 1.17z" style="fill:#e8de7a"/>
                        <path data-name="패스 11078 - 윤곽선" d="M4947.147 1257.419a.25.25 0 0 1 .25.25v4.513a.25.25 0 0 1-.125.217l-2.026 1.17a.25.25 0 0 1-.375-.217v-4.531a.25.25 0 0 1 .126-.217l2.026-1.152a.249.249 0 0 1 .124-.033zm-.25 4.619v-3.938l-1.526.868v3.952z" style="fill:#e8de7a"/>
                        <path data-name="패스 11079" d="m4939 1262.306 2.026-1.152v4.513l-2.026 1.17z" style="fill:#e8de7a"/>
                        <path data-name="패스 11079 - 윤곽선" d="M4941.027 1260.9a.25.25 0 0 1 .25.25v4.513a.25.25 0 0 1-.125.217l-2.026 1.17a.25.25 0 0 1-.375-.217v-4.531a.25.25 0 0 1 .126-.217l2.026-1.152a.249.249 0 0 1 .124-.033zm-.25 4.619v-3.939l-1.526.868v3.952z" style="fill:#e8de7a"/>
                        <g data-name="그룹 9261">
                            <path data-name="패스 11080" d="m4926.076 1272.071-5.164-3v-10.922a.254.254 0 0 1 .381-.219l4.453 2.58a.663.663 0 0 1 .33.572z" style="fill:#727272"/>
                        </g>
                        <path data-name="패스 11081" d="m4921.293 1257.927 4.453 2.58a.664.664 0 0 1 .33.573v3.026l-5.164 3v-8.957a.254.254 0 0 1 .381-.222z" style="fill:#5e5e5e"/>
                    </g>
                </g>
            </g>
            <g data-name="그룹 9268">
                <g data-name="그룹 9267" style="clip-path:url(#txewm5iyab)" transform="translate(-4909.765 -1228.635)">
                    <g data-name="그룹 9266">
                        <path data-name="패스 11083" d="m4924.575 1241.481 11.153 19.318 18.562-10.727a.855.855 0 0 0 .312-1.165l-10.3-17.84a.853.853 0 0 0-1.166-.312z" style="fill:#e6cb00"/>
                        <g data-name="그룹 9265">
                            <path data-name="패스 11084" d="m4932.534 1258.955 3.194 1.844-11.152-19.318-11.154 6.439 2.142 1.237 8.486-4.9z" style="fill:#ffeb00"/>
                        </g>
                    </g>
                </g>
            </g>
        </g>
        <path data-name="패스 11086" d="M4943.567 1230.635a.837.837 0 0 0-.42.113l-29.211 16.874a.344.344 0 0 0 0 .6l1.628.94.655-.379v14.466a2.008 2.008 0 0 0 1 1.74l14.885 8.6a2.012 2.012 0 0 0 2 .007l15.986-9.085a2.008 2.008 0 0 0 1.017-1.747v-10.851l3.191-1.844a.838.838 0 0 0 .306-1.146l-10.314-17.864a.837.837 0 0 0-.727-.42m0-.75a1.592 1.592 0 0 1 1.377.8l10.313 17.862a1.588 1.588 0 0 1-.581 2.17l-2.816 1.628v10.418a2.763 2.763 0 0 1-1.4 2.4l-15.986 9.085a2.762 2.762 0 0 1-2.745-.01l-14.885-8.6a2.766 2.766 0 0 1-1.38-2.389V1249.9a.75.75 0 0 1-.28-.094l-1.628-.94a1.094 1.094 0 0 1 0-1.893l29.213-16.875a1.591 1.591 0 0 1 .802-.213z" style="fill:#e5e5e5" transform="translate(-4909.765 -1228.635)"/>
    </g>
</svg>
