<svg xmlns="http://www.w3.org/2000/svg" width="48" height="48" viewBox="0 0 48 48">
    <defs>
        <clipPath id="2v7u06611a">
            <path data-name="패스 11109" d="m4762.483 1342.829-21-12.124a1.966 1.966 0 0 0-1.964 0l-13.78 7.919a1.968 1.968 0 0 0-.987 1.706v16.6a1.969 1.969 0 0 0 .983 1.7l21 12.124a1.969 1.969 0 0 0 1.964 0l13.78-7.919a1.969 1.969 0 0 0 .987-1.706v-16.6a1.968 1.968 0 0 0-.983-1.7z" style="fill:none"/>
        </clipPath>
        <clipPath id="6fi7nde8lb">
            <path data-name="패스 11114" d="m4737.939 1339.084 1.792 1.041a.641.641 0 0 0 .637 0l1.516-.856v-.7l3.3 1.92a.643.643 0 0 1 .319.554v2.065a.642.642 0 0 0 .32.555l1.79 1.033a.637.637 0 0 0 .636 0l1.19-.674a.641.641 0 0 0 .325-.558v-4.864a.639.639 0 0 0-.32-.554l-9.705-5.608a.643.643 0 0 0-.642 0l-1.153.668a.642.642 0 0 0-.32.555v4.868a.64.64 0 0 0 .315.555z" style="fill:none"/>
        </clipPath>
    </defs>
    <path data-name="사각형 2024" style="fill:none" d="M0 0h48v48H0z"/>
    <g data-name="그룹 9286">
        <g data-name="그룹 9285">
            <path data-name="패스 11102" d="m4724.738 1339.207 22.582 13.033a.813.813 0 0 0 .81 0l15.335-8.793" style="fill:none" transform="translate(-4719.738 -1326.441)"/>
            <g data-name="그룹 9281">
                <g data-name="그룹 9280" style="clip-path:url(#2v7u06611a)" transform="translate(-4719.738 -1326.441)">
                    <g data-name="그룹 9279">
                        <g data-name="그룹 9278">
                            <path data-name="패스 11103" d="m4740.494 1330.137-15.782 9.07 23.013 13.286 15.782-9.07z" style="fill:#eaeaeb"/>
                            <path data-name="패스 11104" d="M4724.712 1339.207v18.912l23.013 13.286v-18.912z" style="fill:#fbfbfb"/>
                            <path data-name="패스 11105" d="m4747.725 1352.494 15.782-9.07v18.912l-15.782 9.07z" style="fill:#c4c4c4"/>
                        </g>
                        <path data-name="패스 11106" d="M4747.72 1362.049a1.14 1.14 0 0 1-.569-.152l-22.538-13.007a.25.25 0 0 1 .25-.433l22.538 13.007a.637.637 0 0 0 .642 0l15.337-9.066a.25.25 0 0 1 .255.43l-15.337 9.066a1.131 1.131 0 0 1-.578.155z" style="fill:#c4b200"/>
                        <path data-name="패스 11107" d="M4730.739 1352.111h-.006v.078a8.961 8.961 0 0 0 .584 3.067c1.311 3.612 4.406 6.5 6.913 6.442a2.689 2.689 0 0 0 .98-.2 2.545 2.545 0 0 0 .3-.137l-.006-.009c1.521-.885 1.951-3.376.893-6.29-1.311-3.611-4.406-6.495-6.913-6.441a2.631 2.631 0 0 0-1.228.316 3.5 3.5 0 0 0-1.517 3.174z" style="fill:#ffeb00"/>
                        <path data-name="패스 11108" d="m4734.943 1351.46 1.829 1.056v2.141l1.828 1.026v2.1l-1.828-1.047v2.111l-1.843-1.064v-2.1l-1.813-1.056v-2.15l1.828 1.094z" style="fill:#fff"/>
                    </g>
                </g>
            </g>
            <g data-name="그룹 9284">
                <g data-name="그룹 9283" style="clip-path:url(#6fi7nde8lb)" transform="translate(-4719.738 -1326.441)">
                    <g data-name="그룹 9282">
                        <path data-name="패스 11110" d="m4740.048 1334.705 1.835-1.04v5.607l-1.835 1.04z" style="fill:#c4b200"/>
                        <path data-name="패스 11111" d="M4740.048 1337.5v2.811l-2.428-1.409v-5.607l10.306 5.978v5.607l-2.428-1.4v-2.8z" style="fill:#ffeb00"/>
                        <path data-name="패스 11112" d="m4737.621 1333.293 1.793-1.04 10.346 5.978-1.833 1.04z" style="fill:#e6cb00"/>
                        <path data-name="패스 11113" d="m4747.926 1339.271 1.833-1.04v5.607l-1.833 1.04z" style="fill:#c4b200"/>
                    </g>
                </g>
            </g>
        </g>
        <path data-name="패스 11115" d="M4740.492 1330.441a1.962 1.962 0 0 0-.98.262l-13.78 7.919a1.968 1.968 0 0 0-.987 1.706v16.6a1.969 1.969 0 0 0 .983 1.7l21 12.124a1.97 1.97 0 0 0 1.965 0l13.78-7.919a1.969 1.969 0 0 0 .987-1.706v-16.6a1.968 1.968 0 0 0-.984-1.7l-21-12.124a1.967 1.967 0 0 0-.984-.264m0-.75a2.723 2.723 0 0 1 1.359.364l21 12.124a2.727 2.727 0 0 1 1.359 2.354v16.6a2.725 2.725 0 0 1-1.363 2.356l-13.781 7.919a2.72 2.72 0 0 1-2.713 0l-21-12.124a2.728 2.728 0 0 1-1.358-2.354v-16.6a2.725 2.725 0 0 1 1.363-2.356l13.78-7.919a2.717 2.717 0 0 1 1.354-.362z" style="fill:#e5e5e5" transform="translate(-4719.738 -1326.441)"/>
    </g>
</svg>
