<svg xmlns="http://www.w3.org/2000/svg" width="48" height="48" viewBox="0 0 48 48">
    <defs>
        <clipPath id="yv2ptil8ea">
            <path data-name="패스 11100" d="m5027.469 1245.882-18.3 10.561a1.632 1.632 0 0 0-.78 1.753l1.211 5.68a5.623 5.623 0 0 0 2.689 3.7l8.451 4.876a5.621 5.621 0 0 0 5.621 0l11.087-6.4a5.621 5.621 0 0 0 2.73-3.92l1.343-7.848a1.631 1.631 0 0 0-.792-1.688l-11.629-6.71a1.63 1.63 0 0 0-1.631-.004z" style="fill:#f8f8f8"/>
        </clipPath>
    </defs>
    <path data-name="사각형 2023" style="fill:none" d="M0 0h48v48H0z"/>
    <g data-name="그룹 9277">
        <g data-name="그룹 9276">
            <g data-name="그룹 9271">
                <path data-name="패스 11087" d="m5031.442 1238.7-8.513-.071-.02 1.14c-.073 1.075 1.089 2.087 2.943 2.432 2.236.415 4.636-.3 5.361-1.593a1.543 1.543 0 0 0 .209-.767z" style="fill:#e6cb00" transform="translate(-5001.354 -1227.556)"/>
                <path data-name="패스 11088" d="m5030.274 1236.972-.04-.021a5.321 5.321 0 0 0-1.74-.623c-2.236-.416-4.636.3-5.362 1.593a1.588 1.588 0 0 0-.191.56 1.423 1.423 0 0 0-.02.192h.007c-.006 1.041 1.136 2.008 2.94 2.343 2.236.416 4.636-.3 5.361-1.592a1.548 1.548 0 0 0 .207-.722 2.07 2.07 0 0 0-1.162-1.73z" style="fill:#ffeb00" transform="translate(-5001.354 -1227.556)"/>
            </g>
            <path data-name="패스 11089" d="M5031.44 1238.7a2.069 2.069 0 0 0-1.166-1.727l-.04-.021a5.321 5.321 0 0 0-1.74-.623c-2.236-.416-4.636.3-5.362 1.593a1.588 1.588 0 0 0-.191.56c-.009.05-.012.1-.016.149v.043l-.019 1.1c-.073 1.075 1.089 2.087 2.943 2.432 2.236.415 4.636-.3 5.361-1.593a1.543 1.543 0 0 0 .209-.767l.02-1.141z" style="fill:none" transform="translate(-5001.354 -1227.556)"/>
            <g data-name="그룹 9272">
                <path data-name="패스 11090" d="M5035.9 1261.123a.811.811 0 0 1-.81-.81v-25.507a2.608 2.608 0 0 0-3.13-2.54 5.005 5.005 0 0 0-2.888 2.277 6.824 6.824 0 0 0-.867 1.925 6.72 6.72 0 0 0-.2 1.045 6.698 6.698 0 0 0-.037.531c-.007.234-.022.431-.247.556a1.172 1.172 0 0 1-.678.116.739.739 0 0 1-.646-.357 1.515 1.515 0 0 1-.061-.759 8.962 8.962 0 0 1 2.586-5.462 5.158 5.158 0 0 1 3.435-1.581 4.285 4.285 0 0 1 4.353 4.249v25.507a.81.81 0 0 1-.81.81z" style="fill:#e6cb00" transform="translate(-5001.354 -1227.556)"/>
            </g>
            <g data-name="그룹 9275">
                <path data-name="패스 11091" d="m5027.469 1245.882-18.3 10.561a1.632 1.632 0 0 0-.78 1.753l1.211 5.68a5.623 5.623 0 0 0 2.689 3.7l8.451 4.876a5.621 5.621 0 0 0 5.621 0l11.087-6.4a5.621 5.621 0 0 0 2.73-3.92l1.343-7.848a1.631 1.631 0 0 0-.792-1.688l-11.629-6.71a1.63 1.63 0 0 0-1.631-.004z" style="fill:#f8f8f8" transform="translate(-5001.354 -1227.556)"/>
                <g data-name="그룹 9274" style="clip-path:url(#yv2ptil8ea)" transform="translate(-5001.354 -1227.556)">
                    <g data-name="그룹 9273">
                        <path data-name="패스 11092" d="m5027.174 1252.568 1.206-5.186 9.915 5.724-5.1 2.947z" style="fill:#e0e0db"/>
                        <path data-name="패스 11093" d="m5011.583 1257.089 16.8-9.708-1.206 5.186-11.766 6.729z" style="fill:#c4c4c4"/>
                        <path data-name="패스 11094" d="m5035 1257.036-7.5-4.356a.832.832 0 0 0-.833 0l-13.04 7.523 7.945 4.587z" style="fill:#b7c7fe"/>
                        <path data-name="패스 11094 - 윤곽선" d="M5027.08 1252.318a1.085 1.085 0 0 1 .543.146l7.5 4.356a.25.25 0 0 1 0 .433l-13.429 7.753a.25.25 0 0 1-.25 0l-7.945-4.587a.25.25 0 0 1 0-.433l13.04-7.523a1.082 1.082 0 0 1 .541-.145zm7.42 4.718-7.127-4.139a.592.592 0 0 0-.583 0l-12.665 7.307 7.445 4.3z" style="fill:#6e90fd"/>
                        <path data-name="패스 11095" d="m5021.57 1264.789-13.428-7.753 1.494 7.008a5.23 5.23 0 0 0 2.5 3.443l8.774 5.063a1.354 1.354 0 0 0 2-1.456z" style="fill:#fbfbfb"/>
                        <path data-name="패스 11096" d="m5041.713 1253.159-1.52 8.879a5.81 5.81 0 0 1-2.823 4.054l-11.106 6.412a2.278 2.278 0 0 1-3.367-1.5l-1.327-6.218z" style="fill:#c4c4c4"/>
                        <path data-name="패스 11097" d="m5028.38 1247.382 9.915 5.724-16.8 9.707-9.915-5.724zm-.187-2.039-20.151 11.651 13.529 7.8 20.143-11.63z" style="fill:#efefef"/>
                        <path data-name="패스 11098" d="m5008.142 1257.036 13.006 7.509a.845.845 0 0 0 .845 0l19.72-11.386" style="fill:none"/>
                        <path data-name="패스 11099" d="m5011.583 1257.089 9.915 5.724 16.8-9.707-9.915-5.724z" style="fill:none"/>
                    </g>
                </g>
            </g>
        </g>
        <path data-name="패스 11101" d="M5023.549 1273.2a5.614 5.614 0 0 0 2.811-.754l11.088-6.4a5.621 5.621 0 0 0 2.73-3.92l1.343-7.848a1.631 1.631 0 0 0-.792-1.688l-4.024-2.321v-15.464a4.286 4.286 0 0 0-4.267-4.25h-.086a5.158 5.158 0 0 0-3.435 1.581 8.911 8.911 0 0 0-2.341 4.106 6.7 6.7 0 0 0-1.326.237 4.783 4.783 0 0 0-1.285.584 2.563 2.563 0 0 0-.829.854 1.633 1.633 0 0 0-.125.279 1.587 1.587 0 0 0-.067.281c-.007.05-.011.1-.015.149v.043l-.019 1.1a1.5 1.5 0 0 0 .168.785 2.274 2.274 0 0 0 .581.705 3.688 3.688 0 0 0 .692.44 4.759 4.759 0 0 0 .625.264 5.987 5.987 0 0 0 .877.238 7.165 7.165 0 0 0 1.679.108 6.75 6.75 0 0 0 1.568-.263 4.759 4.759 0 0 0 1.285-.584 2.56 2.56 0 0 0 .829-.854 1.543 1.543 0 0 0 .209-.767l.02-1.141a1.572 1.572 0 0 0-.294-.933.247.247 0 0 0-.021-.024 2.361 2.361 0 0 0-.348-.4 3.34 3.34 0 0 0-.5-.374l-.04-.021a5.321 5.321 0 0 0-1.74-.623c-.079-.015-.158-.018-.236-.029a6.785 6.785 0 0 1 .8-1.754 5.005 5.005 0 0 1 2.888-2.277 2.57 2.57 0 0 1 .531-.056 2.612 2.612 0 0 1 2.6 2.6v14.529l-5.985-3.454a1.631 1.631 0 0 0-1.631 0l-18.3 10.561a1.632 1.632 0 0 0-.78 1.753l1.211 5.68a5.62 5.62 0 0 0 2.689 3.7l8.451 4.876a5.613 5.613 0 0 0 2.809.753m0 .75a6.376 6.376 0 0 1-3.184-.853l-8.451-4.876a6.38 6.38 0 0 1-3.047-4.19l-1.211-5.68a2.376 2.376 0 0 1 1.138-2.559l18.3-10.561a2.38 2.38 0 0 1 2.38 0l4.86 2.8v-13.23a1.872 1.872 0 0 0-1.849-1.846 1.836 1.836 0 0 0-.376.039 4.227 4.227 0 0 0-2.415 1.954 5.637 5.637 0 0 0-.425.782 5.633 5.633 0 0 1 1.335.559l.018.009a.752.752 0 0 1 .116.074 4.045 4.045 0 0 1 .543.413 3.064 3.064 0 0 1 .427.477.791.791 0 0 1 .064.085 2.341 2.341 0 0 1 .418 1.3v.061l-.02 1.134a2.287 2.287 0 0 1-.3 1.128 3.288 3.288 0 0 1-1.065 1.11 5.48 5.48 0 0 1-1.489.68 7.471 7.471 0 0 1-1.744.293 8.419 8.419 0 0 1-.421.011 7.854 7.854 0 0 1-1.433-.131 6.74 6.74 0 0 1-.986-.267 5.534 5.534 0 0 1-.72-.3 4.384 4.384 0 0 1-.833-.534 3.016 3.016 0 0 1-.768-.94 2.241 2.241 0 0 1-.249-1.154l.018-1.009v-.059a.84.84 0 0 1 .007-.11c0-.051.009-.114.019-.183v-.01a2.316 2.316 0 0 1 .1-.413 2.408 2.408 0 0 1 .181-.4 3.288 3.288 0 0 1 1.064-1.109 5.51 5.51 0 0 1 1.49-.68 6.774 6.774 0 0 1 .958-.206 9.61 9.61 0 0 1 2.4-3.956 5.9 5.9 0 0 1 3.943-1.793h.1a5.035 5.035 0 0 1 5.017 5v15.031l3.648 2.1a2.391 2.391 0 0 1 1.157 2.465l-1.343 7.847a6.354 6.354 0 0 1-3.094 4.443l-11.088 6.4a6.378 6.378 0 0 1-3.188.849z" style="fill:#e5e5e5" transform="translate(-5001.354 -1227.556)"/>
    </g>
</svg>
