<svg xmlns="http://www.w3.org/2000/svg" width="48" height="48" viewBox="0 0 48 48">
    <defs>
        <clipPath id="108rfoy8oa">
            <path data-name="패스 11030" d="m4951.525 1166.051 5.3 3.137a.985.985 0 0 1 .483.846v4.264a1.011 1.011 0 0 1-.508.877l-12.172 6.988a1.025 1.025 0 0 1-1.025 0l-14.848-8.64a.476.476 0 0 0-.476 0l-4.415 2.549a1.038 1.038 0 0 1-1.038 0l-8.9-5.146a1 1 0 0 1-.5-.866v-4.29a1 1 0 0 1 .5-.865l4.462-2.59" style="fill:none"/>
        </clipPath>
        <clipPath id="tq5yw8pdvb">
            <path data-name="패스 11048" d="M4951.229 1150.056a.8.8 0 0 1 .4.694v18.39a.806.806 0 0 1-.4.695l-6.727 3.931a.385.385 0 0 1-.382 0l-.2-.115c-.121-.068-14.675-8.527-14.675-8.527a.8.8 0 0 0-.8 0l-4.37 2.523a.8.8 0 0 1-.8 0l-4.37-2.523a.8.8 0 0 1-.4-.694v-18.406a.8.8 0 0 1 .4-.7l3.08-1.765a.8.8 0 0 1 .793 0l.9.506v-1.016a.8.8 0 0 1 .4-.692l6.477-3.785a.806.806 0 0 1 .8-.006l.706.4z" style="fill:none"/>
        </clipPath>
    </defs>
    <path data-name="사각형 2018" style="fill:none" d="M0 0h48v48H0z"/>
    <g data-name="그룹 10514">
        <g data-name="그룹 9232">
            <g data-name="그룹 9231" style="clip-path:url(#108rfoy8oa)" transform="translate(-4911.434 -1136.466)">
                <g data-name="그룹 9230">
                    <path data-name="패스 11023" d="m4919.3 1161.786-5.865 3.4 9.914 5.769 5.171-2.986 15.6 9.075 13.194-7.575-5.783-3.422" style="fill:#eaeaeb"/>
                    <path data-name="패스 11024" d="m4951.525 1167.55 2.818 1.7a.193.193 0 0 1 0 .334l-10.183 5.89a.191.191 0 0 1-.193 0l-15.146-8.82a.6.6 0 0 0-.6 0l-4.786 2.762a.191.191 0 0 1-.192 0l-6.956-3.976a.192.192 0 0 1 0-.334l3.014-1.74" style="fill:#76d06c"/>
                    <path data-name="패스 11025" d="M4944.117 1177.048v5.409l13.194-7.575v-5.409z" style="fill:#c4c4c4"/>
                    <path data-name="패스 11026" d="m4944.117 1182.458-15.6-9.075v-5.409l15.6 9.075z" style="fill:#f8f8f8"/>
                    <path data-name="패스 11027" d="m4928.52 1173.382-5.171 2.986v-5.409l5.171-2.986z" style="fill:#c4c4c4"/>
                    <path data-name="패스 11028" d="m4923.349 1170.959-9.914-5.769v5.444l9.914 5.734z" style="fill:#f8f8f8"/>
                    <path data-name="패스 11029" d="m4957.246 1169.511-12.768 7.329a.72.72 0 0 1-.721 0l-15.088-8.781a.3.3 0 0 0-.3 0l-4.72 2.725a.609.609 0 0 1-.607 0l-9.56-5.565" style="fill:none"/>
                </g>
            </g>
        </g>
        <g data-name="그룹 9243">
            <g data-name="그룹 9242" style="clip-path:url(#tq5yw8pdvb)" transform="translate(-4911.434 -1136.466)">
                <g data-name="그룹 9241">
                    <path data-name="패스 11031" d="m4951.63 1150.286-7.317 4.248v19.342l7.317-4.273z" style="fill:#c4c4c4"/>
                    <path data-name="패스 11032" d="m4928.842 1164.894 15.471 8.982v-19.342l-15.416-8.988z" style="fill:#fbfbfb"/>
                    <g data-name="그룹 9233">
                        <path data-name="패스 11033" d="m4928.9 1145.546 10.288 6-5.171 2.986-10.343-5.971z" style="fill:none"/>
                        <path data-name="패스 11034" d="m4928.9 1145.547-5.227 3.017-5.171-2.986 3.878-2.239 1.292.746 1.293-.746-1.292-.747 7.273-4.247 20.686 11.943-7.317 4.248z" style="fill:#eaeaeb"/>
                    </g>
                    <path data-name="패스 11035" d="m4923.67 1148.562-5.172-2.986v19.317l5.171 2.986z" style="fill:#f8f8f8"/>
                    <path data-name="패스 11036" d="m4923.67 1167.879 5.171-2.986.055-19.348-5.227 3.017z" style="fill:#c4c4c4"/>
                    <path data-name="패스 11037" d="m4932.554 1141.645-2.424-1.376a.1.1 0 0 0-.1 0l-2.342 1.375a.1.1 0 0 0 0 .175l2.384 1.377a.1.1 0 0 0 .1 0l2.382-1.375a.1.1 0 0 0 0-.176z" style="fill:#76d06c"/>
                    <path data-name="패스 11038" d="m4948.069 1150.779-2.383 1.376a.1.1 0 0 1-.1 0l-14.017-8.095a.1.1 0 0 1 0-.176l2.383-1.376a.1.1 0 0 1 .1 0l14.016 8.095a.1.1 0 0 1 .001.176z" style="fill:#76d06c"/>
                    <g data-name="그룹 9234">
                        <path data-name="사각형 2108" transform="rotate(-56.31 3529.309 -4028.679)" style="fill:#e4e4e4" d="M0 0h.001v.001H0z"/>
                    </g>
                    <path data-name="패스 11039" d="M4923.671 1142.591v1.478l1.292-.731z" style="fill:#c4c4c4"/>
                    <path data-name="패스 11040" d="m4923.765 1142.69 1.191.684-1.285.695" style="fill:none"/>
                    <path data-name="패스 11041" d="m4951.575 1150.318-7.127 4.138a.281.281 0 0 1-.273.005l-5.138-3-10.14-5.916-4.979 2.873a.492.492 0 0 1-.5 0l-4.813-2.794" style="fill:none"/>
                    <g data-name="그룹 9235">
                        <path data-name="패스 11042" d="M4932.248 1151.789v1.493l2.586 1.493v-1.493z" style="fill:#e0e0e0"/>
                        <path data-name="패스 11042 - 윤곽선" d="M4932.248 1151.539a.25.25 0 0 1 .125.033l2.586 1.493a.25.25 0 0 1 .125.217v1.493a.25.25 0 0 1-.375.217l-2.586-1.493a.25.25 0 0 1-.125-.217v-1.493a.25.25 0 0 1 .25-.25zm2.336 1.887-2.086-1.2v.916l2.086 1.2z" style="fill:#e0e0e0"/>
                    </g>
                    <g data-name="그룹 9236">
                        <path data-name="패스 11043" d="M4932.248 1156.395v1.493l2.586 1.493v-1.493z" style="fill:#e0e0e0"/>
                        <path data-name="패스 11043 - 윤곽선" d="M4932.248 1156.145a.25.25 0 0 1 .125.033l2.586 1.493a.25.25 0 0 1 .125.217v1.493a.25.25 0 0 1-.375.217l-2.586-1.493a.25.25 0 0 1-.125-.217v-1.493a.25.25 0 0 1 .25-.25zm2.336 1.887-2.086-1.2v.916l2.086 1.2z" style="fill:#e0e0e0"/>
                    </g>
                    <g data-name="그룹 9237">
                        <path data-name="패스 11044" d="M4932.248 1161.052v1.493l2.586 1.493v-1.493z" style="fill:#e0e0e0"/>
                        <path data-name="패스 11044 - 윤곽선" d="M4932.248 1160.8a.25.25 0 0 1 .125.033l2.586 1.493a.25.25 0 0 1 .125.217v1.493a.25.25 0 0 1-.375.217l-2.586-1.493a.25.25 0 0 1-.125-.217v-1.493a.25.25 0 0 1 .25-.25zm2.336 1.887-2.086-1.2v.916l2.086 1.2z" style="fill:#e0e0e0"/>
                    </g>
                    <g data-name="그룹 9238">
                        <path data-name="패스 11045" d="M4937.423 1154.777v1.493l2.586 1.493v-1.493z" style="fill:#e0e0e0"/>
                        <path data-name="패스 11045 - 윤곽선" d="M4937.423 1154.527a.25.25 0 0 1 .125.033l2.586 1.493a.25.25 0 0 1 .125.217v1.493a.25.25 0 0 1-.375.217l-2.586-1.493a.25.25 0 0 1-.125-.217v-1.493a.25.25 0 0 1 .25-.25zm2.336 1.887-2.086-1.2v.916l2.086 1.2z" style="fill:#e0e0e0"/>
                    </g>
                    <g data-name="그룹 9239">
                        <path data-name="패스 11046" d="M4937.423 1159.383v1.493l2.586 1.493v-1.493z" style="fill:#e0e0e0"/>
                        <path data-name="패스 11046 - 윤곽선" d="M4937.423 1159.133a.25.25 0 0 1 .125.033l2.586 1.493a.25.25 0 0 1 .125.217v1.493a.25.25 0 0 1-.375.217l-2.586-1.493a.25.25 0 0 1-.125-.217v-1.493a.25.25 0 0 1 .25-.25zm2.336 1.887-2.086-1.2v.916l2.086 1.2z" style="fill:#e0e0e0"/>
                    </g>
                    <g data-name="그룹 9240">
                        <path data-name="패스 11047" d="M4937.423 1164.041v1.493l2.586 1.493v-1.493z" style="fill:#e0e0e0"/>
                        <path data-name="패스 11047 - 윤곽선" d="M4937.423 1163.791a.25.25 0 0 1 .125.033l2.586 1.493a.25.25 0 0 1 .125.217v1.493a.25.25 0 0 1-.375.217l-2.586-1.493a.25.25 0 0 1-.125-.217v-1.493a.25.25 0 0 1 .25-.25zm2.336 1.887-2.086-1.2v.916l2.086 1.2z" style="fill:#e0e0e0"/>
                    </g>
                </g>
            </g>
        </g>
        <path data-name="패스 11049" d="M4944.121 1182.3a1.027 1.027 0 0 0 .51-.136l12.172-6.988a1.011 1.011 0 0 0 .508-.877v-4.264a.985.985 0 0 0-.483-.846l-5.2-3.075v-15.364a.8.8 0 0 0-.4-.694l-19.179-11.088-.706-.4a.8.8 0 0 0-.8.006l-6.478 3.785a.8.8 0 0 0-.4.692v1.016l-.9-.506a.8.8 0 0 0-.793 0l-3.08 1.765a.8.8 0 0 0-.4.7v16.3l-.1-.012-4.462 2.59a1 1 0 0 0-.5.865v4.29a1 1 0 0 0 .5.866l8.9 5.147a1.04 1.04 0 0 0 1.038 0l4.415-2.549a.476.476 0 0 1 .476 0l14.848 8.64a1.022 1.022 0 0 0 .515.139m0 .75a1.774 1.774 0 0 1-.892-.241l-14.709-8.559-4.277 2.469a1.79 1.79 0 0 1-1.788 0l-8.9-5.147a1.756 1.756 0 0 1-.875-1.515v-4.29a1.756 1.756 0 0 1 .872-1.514l4.192-2.434v-15.794a1.556 1.556 0 0 1 .781-1.347l3.08-1.765a1.536 1.536 0 0 0 2.08-1.2l6.479-3.785a1.554 1.554 0 0 1 1.544-.012l.707.4h.006l19.179 11.088a1.555 1.555 0 0 1 .775 1.343v14.935l4.83 2.857a1.742 1.742 0 0 1 .851 1.492v4.264a1.765 1.765 0 0 1-.885 1.528l-12.172 6.988a1.78 1.78 0 0 1-.879.236z" style="fill:#e5e5e5" transform="translate(-4911.434 -1136.466)"/>
    </g>
</svg>
