<svg xmlns="http://www.w3.org/2000/svg" width="48" height="48" viewBox="0 0 48 48">
    <defs>
        <clipPath id="pvw9z7sy1a">
            <path data-name="패스 11057" d="m5004.057 1153.672-1.414.827a1 1 0 0 0-.5.861v10.955a1 1 0 0 0 .5.865l6.644 3.826 8.047 4.643 9.259 5.337a1 1 0 0 0 .995 0l10.373-5.945a1 1 0 0 0 .5-.866v-10.97a1 1 0 0 0-.5-.862l-1.248-.726" style="fill:#e6b49d"/>
        </clipPath>
        <clipPath id="bqv4ur41bb">
            <path data-name="패스 11063" d="M5036.723 1154.515v7.712a.614.614 0 0 1-.31.532l-8.888 5.03a.914.914 0 0 1-.906 0l-22.272-12.736a.575.575 0 0 1-.29-.5v-8.029" style="fill:none"/>
        </clipPath>
        <clipPath id="es9oj8ziqc">
            <path data-name="패스 11069" d="m5038.091 1151.774-24.7-14.087a.835.835 0 0 0-.828 0l-10.953 6.265a.094.094 0 0 0-.03.026l-.534.658a.106.106 0 0 0 .029.16l25.911 15a.583.583 0 0 0 .584 0l10.782-6.207a.584.584 0 0 0 .264-.688l-.263-.805a.584.584 0 0 0-.262-.322z" style="fill:none"/>
        </clipPath>
    </defs>
    <path data-name="사각형 2019" style="fill:none" d="M0 0h48v48H0z"/>
    <g data-name="그룹 9260">
        <g data-name="그룹 9259">
            <g data-name="그룹 9257">
                <g data-name="그룹 9249">
                    <path data-name="패스 11050" d="m5004.057 1153.672-1.414.827a1 1 0 0 0-.5.861v10.955a1 1 0 0 0 .5.865l6.644 3.826 8.047 4.643 9.259 5.337a1 1 0 0 0 .995 0l10.373-5.945a1 1 0 0 0 .5-.866v-10.97a1 1 0 0 0-.5-.862l-1.248-.726" style="fill:#e6b49d" transform="translate(-4996.025 -1135.578)"/>
                    <g data-name="그룹 9248" style="clip-path:url(#pvw9z7sy1a)" transform="translate(-4996.025 -1135.578)">
                        <g data-name="그룹 9247">
                            <path data-name="패스 11051" d="m5038.467 1162.633-24.915-14.5-11.416 6.658 24.958 14.407z" style="fill:#b98d80"/>
                            <path data-name="패스 11052" d="m5027.095 1181.273-24.946-14.381v-12.1l24.946 14.411z" style="fill:#e6b49d"/>
                            <path data-name="패스 11053" d="m5027.095 1181.272 11.373-6.518v-12.122l-11.373 6.566z" style="fill:#a27a6a"/>
                            <path data-name="패스 11054" d="m5038.383 1162.681-11.02 6.363a.539.539 0 0 1-.536 0l-24.562-14.189" style="fill:none"/>
                            <g data-name="그룹 9246">
                                <path data-name="패스 11055" d="m5015.846 1176.692-4.91-2.852v-8.653a.241.241 0 0 1 .362-.208l4.234 2.453a.631.631 0 0 1 .314.544z" style="fill:#727272"/>
                            </g>
                            <path data-name="패스 11056" d="m5011.3 1164.976 4.234 2.453a.631.631 0 0 1 .314.544v1.145l-4.91 2.851v-6.785a.241.241 0 0 1 .362-.208z" style="fill:#5e5e5e"/>
                        </g>
                    </g>
                </g>
                <g data-name="그룹 9252">
                    <g data-name="그룹 9251" style="clip-path:url(#bqv4ur41bb)" transform="translate(-4996.025 -1135.578)">
                        <g data-name="그룹 9250">
                            <path data-name="패스 11058" d="m5027.071 1168.045 9.651-5.462v-9.624l-9.651 5.559v9.527" style="fill:#c4c4c4"/>
                            <path data-name="패스 11059" d="m5027.071 1168.045-23.014-13.161v-9.5l23.014 13.283z" style="fill:#fbfbfb"/>
                            <path data-name="패스 11060" d="m5012.232 1154-3.324-1.949v2.822l3.324 1.919z" style="fill:#e0e0e0"/>
                            <path data-name="패스 11060 - 윤곽선" d="M5008.908 1151.8a.25.25 0 0 1 .126.034l3.324 1.949a.25.25 0 0 1 .124.216v2.792a.25.25 0 0 1-.375.217l-3.324-1.919a.25.25 0 0 1-.125-.217v-2.822a.25.25 0 0 1 .25-.25zm3.074 2.342-2.824-1.656v2.241l2.824 1.631z" style="fill:#e0e0e0"/>
                            <path data-name="패스 11061" d="m5026.1 1209.9-2.309-1.353v1.959l2.309 1.333z" style="fill:#e0e0e0"/>
                            <path data-name="패스 11061 - 윤곽선" d="M5023.795 1208.292a.25.25 0 0 1 .126.034l2.309 1.353a.25.25 0 0 1 .124.216v1.939a.25.25 0 0 1-.375.217l-2.309-1.333a.25.25 0 0 1-.125-.217v-1.959a.25.25 0 0 1 .25-.25zm2.059 1.747-1.809-1.06v1.379l1.809 1.044z" style="fill:#e0e0e0"/>
                            <path data-name="패스 11062" d="m5020.72 1158.909-3.325-1.949v2.822l3.325 1.919z" style="fill:#e0e0e0"/>
                            <path data-name="패스 11062 - 윤곽선" d="M5017.4 1156.71a.25.25 0 0 1 .126.034l3.325 1.949a.25.25 0 0 1 .124.216v2.792a.25.25 0 0 1-.375.217l-3.33-1.918a.25.25 0 0 1-.125-.217v-2.822a.25.25 0 0 1 .25-.25zm3.075 2.342-2.825-1.656v2.241l2.825 1.631z" style="fill:#e0e0e0"/>
                        </g>
                    </g>
                </g>
                <g data-name="그룹 9256">
                    <g data-name="그룹 9255" style="clip-path:url(#es9oj8ziqc)" transform="translate(-4996.025 -1135.578)">
                        <g data-name="그룹 9254">
                            <path data-name="패스 11064" d="m5038.3 1151.885-25.317-14.434-11.385 6.512 25.213 14.554z" style="fill:#b96d5c"/>
                            <g data-name="그룹 9253">
                                <path data-name="패스 11065" d="m5027.281 1159.968-.472-1.451 11.482-6.63.48 1.47-11.482 6.615z" style="fill:#8c5345"/>
                                <path data-name="패스 11066" d="m5027.572 1160.893.009.005h-.006z" style="fill:#114b78"/>
                                <path data-name="패스 11067" d="M5027.585 1160.9z" style="fill:#114b78"/>
                                <path data-name="패스 11068" d="m5027.268 1159.961-26.3-15.226.625-.772 25.208 14.552h-.006z" style="fill:#d4a296"/>
                            </g>
                        </g>
                    </g>
                </g>
            </g>
            <path data-name="패스 11070" d="m5009.221 1160.808-2.714-1.567a.185.185 0 0 0-.278.16v1.734a.184.184 0 0 0 .093.16l2.714 1.572a.185.185 0 0 0 .278-.16v-1.738a.185.185 0 0 0-.093-.161z" style="fill:#cb9f95" transform="translate(-4996.025 -1135.578)"/>
            <path data-name="패스 11071" d="m5006.747 1161.695-2.715-1.568a.185.185 0 0 0-.277.16v1.734a.185.185 0 0 0 .092.16l2.715 1.572a.185.185 0 0 0 .277-.16v-1.738a.184.184 0 0 0-.092-.16z" style="fill:#be918b" transform="translate(-4996.025 -1135.578)"/>
            <g data-name="그룹 9258">
                <path data-name="패스 11072" d="m5023.669 1169.732-2.777-1.6a.189.189 0 0 0-.283.164v1.774a.188.188 0 0 0 .094.163l2.777 1.608a.189.189 0 0 0 .284-.164v-1.777a.19.19 0 0 0-.095-.168z" style="fill:#cb9f95" transform="translate(-4996.025 -1135.578)"/>
                <path data-name="패스 11073" d="m5024.695 1174.768-2.777-1.6a.189.189 0 0 0-.284.164v1.773a.188.188 0 0 0 .1.164l2.777 1.608a.189.189 0 0 0 .284-.164v-1.778a.189.189 0 0 0-.1-.167z" style="fill:#be918b" transform="translate(-4996.025 -1135.578)"/>
                <path data-name="패스 11074" d="m5021.138 1170.639-2.777-1.6a.189.189 0 0 0-.284.163v1.774a.188.188 0 0 0 .095.164l2.777 1.607a.189.189 0 0 0 .284-.163v-1.784a.189.189 0 0 0-.095-.161z" style="fill:#be918b" transform="translate(-4996.025 -1135.578)"/>
            </g>
        </g>
        <path data-name="패스 11075" d="M5012.982 1137.578a.837.837 0 0 0-.416.11l-10.953 6.265a.106.106 0 0 0-.03.026l-.534.658a.106.106 0 0 0 .029.16l2.978 1.725v7.15l-1.414.827a1 1 0 0 0-.5.861v10.955a1 1 0 0 0 .5.865l6.644 3.826 8.047 4.643 9.259 5.337a1 1 0 0 0 .995 0l10.373-5.945a1 1 0 0 0 .5-.866v-10.97a1 1 0 0 0-.5-.862l-1.248-.726v-7.085l1.633-.94a.584.584 0 0 0 .264-.688l-.263-.805a.584.584 0 0 0-.266-.326l-24.695-14.087a.837.837 0 0 0-.414-.109m0-.75a1.589 1.589 0 0 1 .784.207l24.7 14.088a1.333 1.333 0 0 1 .608.745l.263.8a1.34 1.34 0 0 1-.6 1.571l-1.256.723v6.22l.875.509a1.751 1.751 0 0 1 .869 1.51v10.97a1.753 1.753 0 0 1-.877 1.516l-10.374 5.945a1.748 1.748 0 0 1-1.743 0l-9.259-5.337-8.047-4.643-6.644-3.826a1.757 1.757 0 0 1-.875-1.515v-10.95a1.753 1.753 0 0 1 .868-1.509l1.042-.609v-6.288l-2.6-1.508a.856.856 0 0 1-.232-1.286l.523-.645a.848.848 0 0 1 .212-.192l.035-.021 10.953-6.265a1.591 1.591 0 0 1 .786-.209z" style="fill:#e5e5e5" transform="translate(-4996.025 -1135.578)"/>
    </g>
</svg>
