<svg xmlns="http://www.w3.org/2000/svg" width="48" height="48" viewBox="0 0 48 48">
    <defs>
        <clipPath id="809kkotn5a">
            <path data-name="패스 11004" d="M4765.262 1150.043v19.8a2.135 2.135 0 0 1-1.079 1.856l-10.618 6.039-6.657 3.87a2.29 2.29 0 0 1-2.3.005l-15.3-8.809a1.7 1.7 0 0 1-.855-1.478v-6.405a1.942 1.942 0 0 1 .981-1.688l3.685-2.1v-12.576l17.307 9.777z" style="fill:none"/>
        </clipPath>
        <clipPath id="g60kauu74b">
            <path data-name="패스 11008" d="m4748.278 1138.358 17.066 9.853a.713.713 0 0 1 .357.618v.548a.714.714 0 0 1-.358.619l-14.526 8.354a.715.715 0 0 1-.712 0l-17.066-9.838a.712.712 0 0 1-.357-.618v-.531a.715.715 0 0 1 .356-.618l14.527-8.386a.709.709 0 0 1 .713-.001z" style="fill:none"/>
        </clipPath>
    </defs>
    <g data-name="그룹 8505">
        <g data-name="그룹 8504">
            <g data-name="그룹 8503">
                <g data-name="그룹 8502">
                    <path data-name="선 206" transform="translate(24 47.999)" style="fill:#f0ebe3" d="M0 0"/>
                </g>
            </g>
        </g>
    </g>
    <path data-name="사각형 2016" style="fill:none" d="M0 0h48v48H0z"/>
    <g data-name="그룹 10510">
        <g data-name="그룹 8269">
            <g data-name="그룹 8268">
                <path data-name="선 141" transform="translate(23.999 41.475)" style="fill:#f4f1eb" d="M0 0"/>
            </g>
        </g>
        <g data-name="그룹 9216">
            <g data-name="그룹 9215" style="clip-path:url(#809kkotn5a)" transform="translate(-4723.453 -1136.262)">
                <path data-name="패스 10994" d="M4750.427 1175.462v-17.1l-17.307-10.006v17.158z" style="fill:#fbfbfb"/>
                <path data-name="패스 10995" d="m4750.427 1171.087-17.307-9.953-4.666 2.66 17.307 9.993z" style="fill:#e7e7e8"/>
                <g data-name="그룹 9214">
                    <path data-name="패스 10996" d="M4728.454 1163.792v8.52l17.307 9.963v-8.49z" style="fill:#f8f8f8"/>
                    <path data-name="패스 10997" d="m4744.458 1174.9-.014 6.634-7.4-4.273v-6.993l7.106 4.093a.621.621 0 0 1 .308.539z" style="fill:#f0f0f0"/>
                    <path data-name="패스 10998" d="m4737.042 1170.266-.015 6.993-7.4-4.272v-6.252a.429.429 0 0 1 .643-.372z" style="fill:#f0f0f0"/>
                </g>
                <path data-name="패스 10999" d="M4750.427 1158.293v12.794l-4.666 2.7v8.49l19.5-11.192v-21.042z" style="fill:#c4c4c4"/>
                <path data-name="패스 11000" d="m4736.678 1153.934 1.783 1.03v2.089l1.784 1v2.051l-1.784-1.021v2.059l-1.8-1.038v-2.051l-1.769-1.03v-2.1l1.784 1.068z" style="fill:#4a74fc"/>
                <path data-name="패스 11001" d="M4729.64 1172.97v-6.187a.429.429 0 0 1 .643-.372l5.344 3.078-5.987 3.545" style="fill:#d6d6d6"/>
                <path data-name="패스 11002" d="m4744.444 1181.214.015-6.461a.365.365 0 0 0-.183-.317l-14.1-8.127a.365.365 0 0 0-.548.316v6.11" style="fill:none"/>
                <path data-name="패스 11003" d="m4733.12 1161.134 17.14 9.857a.33.33 0 0 1 .167.288v8.315" style="fill:none"/>
                <path data-name="선 270" d="M0 8.271a.5.5 0 0 1-.5-.5V0A.5.5 0 0 1 0-.5a.5.5 0 0 1 .5.5v7.771a.5.5 0 0 1-.5.5z" transform="translate(4737.042 1169.954)" style="fill:#f8f8f8"/>
            </g>
        </g>
        <g data-name="그룹 9219">
            <g data-name="그룹 9218" style="clip-path:url(#g60kauu74b)" transform="translate(-4723.453 -1136.262)">
                <g data-name="그룹 9217">
                    <path data-name="패스 11005" d="M4750.461 1158.574v-1.359l-17.779-10.255v1.344z" style="fill:#4a74fc"/>
                    <path data-name="패스 11006" d="m4750.461 1157.215 15.24-8.784v1.359l-15.24 8.784" style="fill:#3857bd"/>
                    <path data-name="패스 11007" d="m4765.7 1148.417-17.779-10.265-15.24 8.8 17.779 10.265z" style="fill:#6e90fd"/>
                </g>
            </g>
        </g>
        <path data-name="패스 11009" d="M4747.921 1138.262a.706.706 0 0 0-.356.1l-14.526 8.386a.713.713 0 0 0-.357.618v.531a.712.712 0 0 0 .357.618l.126.073-.045-.026v12.576l-3.685 2.1a1.942 1.942 0 0 0-.981 1.688v6.405a1.7 1.7 0 0 0 .855 1.478l15.3 8.809a2.29 2.29 0 0 0 2.3-.005l6.657-3.87 10.618-6.039a2.135 2.135 0 0 0 1.079-1.856v-19.8l-.034.019.115-.066a.714.714 0 0 0 .358-.619v-.548a.713.713 0 0 0-.357-.618l-17.066-9.853a.709.709 0 0 0-.356-.1m0-.75a1.463 1.463 0 0 1 .733.2l17.065 9.852a1.466 1.466 0 0 1 .732 1.267v.548a1.468 1.468 0 0 1-.439 1.045v19.421a2.89 2.89 0 0 1-1.458 2.508l-10.615 6.037-6.654 3.868a3.041 3.041 0 0 1-3.048.006l-15.3-8.809a2.459 2.459 0 0 1-1.231-2.128v-6.405a2.7 2.7 0 0 1 1.359-2.34l3.307-1.883v-11.761a1.469 1.469 0 0 1-.438-1.045v-.531a1.469 1.469 0 0 1 .731-1.267l14.526-8.386a1.458 1.458 0 0 1 .728-.198z" transform="translate(-4723.453 -1136.262)" style="fill:#e5e5e5"/>
    </g>
</svg>
