<svg xmlns="http://www.w3.org/2000/svg" width="48" height="48" viewBox="0 0 48 48">
    <defs>
        <clipPath id="vrv7e7tcra">
            <path data-name="패스 11016" d="M4840.319 1164.841v-.018l-6.724-11.647-6.724-3.881-6.724 3.881v16.517a2.183 2.183 0 0 0 1.091 1.89l17.993 10.389a2.181 2.181 0 0 0 2.178 0l15.182-8.717a2.182 2.182 0 0 0 1.1-1.893v-16.54z" style="fill:none"/>
        </clipPath>
        <clipPath id="tdhgcbj3ob">
            <path data-name="패스 11021" d="m4852.044 1143.218-7.952-4.591a.937.937 0 0 0-.936 0l-16.8 9.7-8.637 4.986.835.482a.937.937 0 0 0 .936 0l6.4-3.7a.937.937 0 0 1 .933 0l6.68 3.825a.932.932 0 0 1 .344.342l7.181 12.362a.945.945 0 0 0 .341.34l1.792 1.035a.937.937 0 0 0 .936 0l16-9.235a.936.936 0 0 0 .343-1.278l-8.044-13.932a.935.935 0 0 0-.352-.336z" style="fill:none"/>
        </clipPath>
    </defs>
    <path data-name="사각형 2017" style="fill:none" d="M0 0h48v48H0z"/>
    <g data-name="그룹 10512">
        <g data-name="그룹 9228">
            <g data-name="그룹 9224">
                <g data-name="그룹 9223" style="clip-path:url(#vrv7e7tcra)" transform="translate(-4814.714 -1136.502)">
                    <path data-name="패스 11010" d="m4833.592 1153.2-6.724-3.882-6.724 3.882v17.777l20.173 11.647v-17.777z" style="fill:#fbfbfb"/>
                    <path data-name="패스 11011" d="M4840.316 1164.863v17.76l17.367-9.973v-17.8z" style="fill:#c4c4c4"/>
                    <g data-name="그룹 9222">
                        <path data-name="패스 11012" d="m4832.948 1180.6-5.822-3.382v-10.262a.286.286 0 0 1 .429-.247l5.021 2.91a.743.743 0 0 1 .372.645z" style="fill:#727272"/>
                    </g>
                    <path data-name="패스 11013" d="M4834.511 1162.178v3.167l-2.743-1.6v-3.146z" style="fill:#ffeb00"/>
                    <path data-name="패스 11013 - 윤곽선" d="M4831.769 1160.345a.25.25 0 0 1 .125.033l2.743 1.583a.25.25 0 0 1 .125.217v3.167a.25.25 0 0 1-.376.216l-2.743-1.6a.25.25 0 0 1-.124-.216v-3.146a.25.25 0 0 1 .25-.25zm2.493 1.978-2.243-1.295v2.57l2.243 1.312z" style="fill:#ffeb00"/>
                    <path data-name="패스 11014" d="M4828.674 1158.812v3.167l-2.743-1.6v-3.146z" style="fill:#ffeb00"/>
                    <path data-name="패스 11014 - 윤곽선" d="M4825.932 1156.979a.25.25 0 0 1 .125.033l2.743 1.583a.25.25 0 0 1 .125.217v3.167a.25.25 0 0 1-.376.216l-2.743-1.6a.25.25 0 0 1-.124-.216v-3.146a.25.25 0 0 1 .25-.25zm2.493 1.978-2.243-1.295v2.57l2.243 1.312z" style="fill:#ffeb00"/>
                    <path data-name="패스 11015" d="m4827.555 1166.711 5.021 2.909a.745.745 0 0 1 .372.645v1.358l-5.822 3.38v-8.045a.286.286 0 0 1 .429-.247z" style="fill:#5e5e5e"/>
                </g>
            </g>
            <g data-name="그룹 9227">
                <g data-name="그룹 9226" style="clip-path:url(#tdhgcbj3ob)" transform="translate(-4814.714 -1136.502)">
                    <g data-name="그룹 9225">
                        <path data-name="패스 11017" d="m4834.987 1143.344 25.91 14.959-8.637-14.959-8.637-4.986z" style="fill:#f8f8f8"/>
                        <path data-name="사각형 2107" transform="rotate(-30 4569.61 -8445.55)" style="fill:#d85e53" d="M0 0h19.946v17.273H0z"/>
                        <path data-name="패스 11018" d="m4826.351 1148.33 8.637 4.986 17.273-9.973-8.637-4.986z" style="fill:#f06d5b"/>
                        <path data-name="패스 11020" d="m4817.714 1153.316 8.637-4.986 8.637 4.986 8.636 14.959-2.476-1.43-7.432-12.795-7.365-4.218-7.334 4.235z" style="fill:#ff928d"/>
                    </g>
                </g>
            </g>
        </g>
        <path data-name="패스 11022" d="M4843.625 1138.5a.94.94 0 0 0-.469.125l-25.442 14.689.835.482a.937.937 0 0 0 .936 0l.662-.382v16.277a2.181 2.181 0 0 0 1.091 1.89l17.993 10.389a2.181 2.181 0 0 0 2.178 0l15.182-8.717a2.182 2.182 0 0 0 1.1-1.893v-11.208l2.4-1.386a.936.936 0 0 0 .343-1.278l-8.043-13.932a.945.945 0 0 0-.343-.342l-7.952-4.591a.933.933 0 0 0-.467-.125m0-.75a1.683 1.683 0 0 1 .843.226l7.952 4.591a1.7 1.7 0 0 1 .616.613l8.045 13.935a1.688 1.688 0 0 1-.619 2.3l-2.025 1.169v10.775a2.942 2.942 0 0 1-1.471 2.543l-15.182 8.717a2.931 2.931 0 0 1-2.927 0l-17.993-10.389a2.94 2.94 0 0 1-1.466-2.54v-15.058a1.687 1.687 0 0 1-1.222-.182l-.836-.482a.75.75 0 0 1 0-1.3l25.442-14.689a1.693 1.693 0 0 1 .839-.225z" style="fill:#e5e5e5" transform="translate(-4814.714 -1136.502)"/>
    </g>
</svg>
