<svg xmlns="http://www.w3.org/2000/svg" width="48" height="48" viewBox="0 0 48 48">
    <path data-name="사각형 2020" style="fill:none" d="M0 0h48v48H0z"/>
    <g data-name="그룹 9213">
        <g data-name="그룹 9212" transform="translate(-4719.452 -1226.862)">
            <path data-name="패스 10984" d="m4730.131 1238.708 17.406 30.147 8.639-4.988c3.936-1.974 5.1-8.166 2.464-15.415-3.173-8.74-10.664-15.719-16.731-15.588a6.3 6.3 0 0 0-3.138.856z" style="fill:#e7e7e8"/>
            <g data-name="그룹 9210">
                <path data-name="패스 10985" d="m4758.538 1248.245-17.18 9.956 6.179 10.7 8.639-4.988c3.936-1.973 5.1-8.165 2.464-15.414-.031-.085-.069-.168-.102-.254z" style="fill:#c4c4c4"/>
            </g>
            <path data-name="패스 10986" d="m4726.468 1246.4-.016-.009c0 .06.009.126.009.187a21.7 21.7 0 0 0 1.414 7.425c3.173 8.74 10.664 15.719 16.731 15.589a6.532 6.532 0 0 0 2.372-.486 6.159 6.159 0 0 0 .72-.331l-.014-.023c3.681-2.141 4.722-8.171 2.162-15.222-3.173-8.74-10.664-15.719-16.731-15.589a6.368 6.368 0 0 0-2.973.766c-2.318 1.283-3.615 4.08-3.674 7.693z" style="fill:#f8f8f8"/>
            <g data-name="그룹 9211">
                <path data-name="패스 10987" d="M4730.834 1253.115a19.777 19.777 0 0 1-1.35-6.383c0-.052-.01-.109-.012-.161l.014.009c-.035-2.728.745-4.884 2.225-6.066a4.53 4.53 0 0 0-.508.236c-1.885 1.037-2.889 3.4-2.85 6.489l-.014-.009c0 .052.01.109.012.161a19.778 19.778 0 0 0 1.35 6.383c2.838 7.55 9.2 13.7 14.216 13.737a5.041 5.041 0 0 0 1.949-.357 4.55 4.55 0 0 0 .587-.265l-.011-.02a4.429 4.429 0 0 0 .534-.367 5.026 5.026 0 0 1-1.926.35c-5.014-.036-11.379-6.187-14.216-13.737z" style="fill:#cececf"/>
                <path data-name="패스 10988" d="M4747.857 1253.906c-2.837-7.551-9.2-13.7-14.215-13.738a5.091 5.091 0 0 0-1.931.346c-1.48 1.182-2.26 3.338-2.225 6.066l-.014-.009c0 .052.01.109.012.161a19.777 19.777 0 0 0 1.35 6.383c2.837 7.55 9.2 13.7 14.216 13.737a5.026 5.026 0 0 0 1.926-.35c2.534-2.02 3.024-6.886.881-12.596z" style="fill:#fff"/>
            </g>
            <path data-name="선 266" d="M0 2.736a.25.25 0 0 1-.25-.25V0A.25.25 0 0 1 0-.25.25.25 0 0 1 .25 0v2.486a.25.25 0 0 1-.25.25z" transform="translate(4738.855 1261.173)" style="fill:#5e5e5e"/>
            <path data-name="선 267" d="M2.126 1.515A.249.249 0 0 1 2 1.48L-.128.215a.25.25 0 0 1-.087-.343.25.25 0 0 1 .343-.087L2.254 1.05a.25.25 0 0 1-.128.465z" transform="translate(4746.755 1257.765)" style="fill:#5e5e5e"/>
            <path data-name="선 268" d="M2.126 1.515A.249.249 0 0 1 2 1.48L-.128.215a.25.25 0 0 1-.087-.343.25.25 0 0 1 .343-.087L2.254 1.05a.25.25 0 0 1-.128.465z" transform="translate(4729.828 1247.563)" style="fill:#5e5e5e"/>
            <path data-name="선 269" d="M0 2.736a.25.25 0 0 1-.25-.25V0A.25.25 0 0 1 0-.25.25.25 0 0 1 .25 0v2.486a.25.25 0 0 1-.25.25z" transform="translate(4738.855 1242.536)" style="fill:#5e5e5e"/>
            <path data-name="패스 10989" d="M4743.087 1256.014a.249.249 0 0 1-.125-.034l-4.208-2.431a.25.25 0 0 1-.125-.216v-6.344a.25.25 0 0 1 .5 0v6.2l4.083 2.359a.25.25 0 0 1-.125.466z" style="fill:#4a74fc"/>
            <ellipse data-name="타원 348" cx=".785" cy="1.287" rx=".785" ry="1.287" transform="rotate(-30 4706.18 -8214.093)" style="fill:#809efd"/>
            <path data-name="타원 348 - 윤곽선" d="M.785-.25c.58 0 1.035.675 1.035 1.537S1.365 2.825.785 2.825-.25 2.15-.25 1.287.2-.25.785-.25zm0 2.575c.253 0 .535-.444.535-1.037S1.038.25.785.25.25.694.25 1.287s.282 1.038.535 1.038z" transform="rotate(-30 4706.18 -8214.093)" style="fill:#4a74fc"/>
            <path data-name="패스 10990" d="M4747.238 1268.915a5.945 5.945 0 0 0 .72-.33l-.013-.023c3.68-2.141 4.721-8.171 2.161-15.222-3.173-8.74-10.664-15.719-16.731-15.589a6.929 6.929 0 0 0-1.34.156" style="fill:none"/>
            <path data-name="패스 10991" d="M4730.142 1238.711c-2.318 1.279-3.615 4.076-3.674 7.693l-.016-.009c0 .06.009.126.009.187a21.7 21.7 0 0 0 1.414 7.425c3.173 8.74 10.664 15.719 16.731 15.589a6.532 6.532 0 0 0 2.372-.486 6.159 6.159 0 0 0 .72-.331" style="fill:none"/>
            <path data-name="패스 10992" d="m4747.537 1268.855 8.639-4.988c3.936-1.974 5.1-8.166 2.464-15.415-3.173-8.74-10.664-15.719-16.731-15.588a6.3 6.3 0 0 0-3.138.856l-8.64 4.988" style="fill:none"/>
        </g>
        <path data-name="패스 10993" d="M4744.438 1269.6h.167a6.5 6.5 0 0 0 2.371-.487c.186-.071 9.2-5.194 9.2-5.194 2.467-1.236 3.842-4.131 3.878-7.9v-.016a21.686 21.686 0 0 0-1.414-7.543c-3.145-8.659-10.526-15.59-16.563-15.59h-.168a6.3 6.3 0 0 0-3.138.856l-8.64 4.988.005.007c-2.314 1.281-3.609 4.076-3.668 7.689l-.016-.009c0 .06.008.126.009.188a21.747 21.747 0 0 0 1.413 7.424c3.145 8.659 10.528 15.59 16.564 15.591m0 .75c-3.113 0-6.622-1.688-9.88-4.752a29.75 29.75 0 0 1-7.389-11.333 22.678 22.678 0 0 1-1.458-7.673v-.047c0-.041-.006-.092-.006-.148a.777.777 0 0 1 .019-.169 12.063 12.063 0 0 1 1.057-4.862 7.181 7.181 0 0 1 2.888-3.245.78.78 0 0 1 .089-.06l8.636-4.985a7.048 7.048 0 0 1 3.5-.959h.184c3.114 0 6.623 1.688 9.88 4.751a29.76 29.76 0 0 1 7.388 11.332 22.612 22.612 0 0 1 1.459 7.808v.034c-.044 4.079-1.6 7.189-4.274 8.539-8.378 4.762-9.146 5.171-9.265 5.225a7.277 7.277 0 0 1-2.643.544z" style="fill:#e5e5e5" transform="translate(-4719.452 -1226.862)"/>
    </g>
</svg>
